<?xml version="1.0" encoding="utf-8"?>
<!-- Generator: Adobe Illustrator 25.4.2, SVG Export Plug-In . SVG Version: 6.00 Build 0)  -->
<svg version="1.1" id="Layer_1" xmlns="http://www.w3.org/2000/svg" xmlns:xlink="http://www.w3.org/1999/xlink" x="0px" y="0px"
	 viewBox="0 0 265.7 132.1" style="enable-background:new 0 0 265.7 132.1;" xml:space="preserve">
<style type="text/css">
	.st0{fill:#FFFFFF;}
</style>
<g>
	<path class="st0" d="M256.9,13.6L256.9,13.6c0.5-0.2,0.9-0.6,0.9-1.1c0-0.4-0.2-0.8-0.4-1c-0.3-0.2-0.7-0.3-1.5-0.3
		c-0.7,0-1.3,0.1-1.7,0.1v4.3h1V14h0.5c0.6,0,0.8,0.2,0.9,0.7c0.1,0.5,0.2,0.9,0.3,1.1h1.1c-0.1-0.2-0.2-0.4-0.3-1.1
		C257.6,14,257.3,13.7,256.9,13.6z M255.7,13.2h-0.5V12c0.1,0,0.3-0.1,0.6-0.1c0.6,0,0.9,0.3,0.9,0.7
		C256.7,13.1,256.3,13.2,255.7,13.2z"/>
	<path class="st0" d="M255.9,9.1c-2.5,0-4.5,1.9-4.5,4.3c0,2.5,2,4.4,4.5,4.4c2.5,0,4.5-1.9,4.5-4.4C260.3,11,258.4,9.1,255.9,9.1z
		 M255.9,16.9c-2,0-3.4-1.5-3.4-3.5c0-1.9,1.4-3.5,3.4-3.5c1.9,0,3.3,1.6,3.3,3.5C259.2,15.4,257.8,16.9,255.9,16.9z"/>
	<path class="st0" d="M192.5,32.2c0.3,0,0.7,0,0.9-0.2c0.2-0.1,4.9-7.4,6.6-7.4c0.4,0,0.7-0.3,0.7-0.8c0-1.7-2.7-5.5-7.7-5.5
		c-2.8,0-5.4,8.6-5.4,10.5C187.5,30.7,190.7,32.2,192.5,32.2z"/>
	<path class="st0" d="M146.5,32.2c0.3,0,0.7,0,0.9-0.2c0.2-0.1,4.9-7.4,6.6-7.4c0.4,0,0.7-0.3,0.7-0.8c0-1.7-2.7-5.5-7.7-5.5
		c-2.8,0-5.4,8.6-5.4,10.5C141.5,30.7,144.7,32.2,146.5,32.2z"/>
	<path class="st0" d="M251.1,26.9c-1,0-3.6,0-6.9,0.1c3-5.4,3.8-6.3,3.8-6.4c0-1.1-3.9-2.3-6.5-2.3c-2.2,0-1.7-0.6-7,8.8
		c-3.3,0.1-6.3,0.1-8.2,0.1c-0.9,0-2.2,2.7-2.2,3.8c0,0.9,2.7,0.7,7.7,0.9c-2.9,5.3-6.2,11.4-8.8,16.4c0,0,0,0,0,0c0,0,0,0,0,0
		c-0.5,1.1-1.1,2.1-1.5,3c-0.8,1.4-1.7,3.1-2.8,4.6c-2,2.7-4,4.9-5,4.9c-0.3,0-0.5-0.2-0.5-0.7c0-4.6,10.9-21.9,10.9-22.2
		c0-1.6-4.4-4.3-6.4-4.3c-3.5,0-10.5,7.7-16.3,15.2c2.5-5.1,5.1-9.9,6.2-11.7c0.1-0.2,0.3-0.4,0.4-0.6c0.1-0.2,0.2-0.4,0.1-0.7
		c-0.1-0.3-0.4-0.5-0.7-0.7c-0.4-0.2-0.8-0.4-1.2-0.6c-1.4-0.6-2.9-1-4.4-1c-0.9,0-1.7,0.2-2.1,0.6c-0.4,0.5-2.2,3.5-4.3,7.4l0,0
		c0,0-1,1.9-2.6,4.4c-3.2,4.9-9.3,14.7-11.6,14.7c-0.3,0-0.4-0.2-0.4-0.7c0-4.3,11.4-24.2,11.4-23.8c0-1.1-3.7-2.5-6.3-2.5
		c-0.9,0-1.7,0.2-2.1,0.6c-0.7,0.7-3.9,6.1-6.8,11.6c0,0,0,0,0,0c0,0,0,0,0,0c-0.1,0.1-0.1,0.3-0.2,0.4c0,0,0,0,0,0c0,0,0,0,0,0
		c0,0.1-0.1,0.1-0.1,0.2c-0.4,0.8-1.3,2.3-2.3,3.7c-2,2.7-4.6,5.6-7.6,7.6c4.2-5.1,7.5-12,7.5-17.1c0-4-2.1-7-7.5-7
		c-1.5,0-3.1,0.9-4.8,2.3c-0.2-1.1-3.8-2.3-6.2-2.3c-0.9,0-1.7,0.1-2.1,0.6c-0.4,0.4-2.3,3.7-4.9,8.5h0c0,0-1.2,2.1-2.6,4.3
		c-3.3,5.1-8.8,13.6-10.9,13.6c-0.3,0-0.4-0.2-0.4-0.7c0-4.3,11.4-24.2,11.4-23.8c0-1.1-3.7-2.5-6.3-2.5c-0.9,0-1.7,0.2-2.1,0.6
		c-0.7,0.7-3.7,5.7-6.6,11.1c0,0,0,0,0,0c0,0-1.5,2.7-2.8,4.7c-3.2,4.9-7.2,10.6-9,10.6c-0.3,0-0.5-0.2-0.5-0.7
		c0-3.6,9.8-20.7,10.7-21.6c0.2-0.2,0.2-0.4,0.2-0.6c0-1.6-4.4-4.3-6.4-4.3c-3.1,0-8.8,6.2-13.9,12.8c3.6-7,5-9.3,5-9.2
		c0-1.4-3.9-3.5-6.3-3.5c-0.2,0-0.5,0-0.7,0.1c0-0.1,0-0.1,0-0.1c-3,0-8.2,5.6-12.9,11.8c3.7-7.1,5.2-9.8,5.2-9.4
		c0-1.1-3.7-2.5-6.3-2.5c-0.9,0-1.7,0.1-2.1,0.6c-0.5,0.5-2.3,3.7-4.5,7.7h0c0,0-1.7,3.1-3.3,5.6c-3.3,5.2-8.5,13.1-10.6,13.1
		c-0.3,0-0.4-0.2-0.4-0.7c0-4.3,11.4-24.2,11.4-23.8c0-1.1-3.7-2.5-6.3-2.5c-2,0-1.8-0.2-4.9,5.1c-0.6-2.3-2.4-5.1-6.9-5.1
		c-7.2,0-17.7,14.8-17.7,23.9c0,4.1,2.1,7,7.5,7c2.3,0,4.9-2.1,7.5-5.1c0.7,3.2,4.8,5.1,9,5.1c1.7,0,3.7-1.6,5.7-3.9
		c-0.1,0.3-0.1,0.5-0.1,0.6c0,1.7,4.4,3.2,6.9,3.2c1,0,1.7-0.2,1.7-0.9c0-0.6,10.1-15.3,16.4-22.7C98.7,48.4,93,59.3,93,61.4
		c0,1.7,4.3,3.2,6.9,3.2c1,0,1.8-0.2,1.8-0.8c0-0.6,9-13.3,15.1-20.8c-3.6,6.4-7.4,14-7.4,15.6c0,3.7,4.4,6.1,9.1,6.1
		c2,0,4.4-2.2,6.7-5.1c0.7,3.1,4.4,5,8.6,5c1.3,0,2.8-0.8,4.3-2.2c-3.9,7.5-6.9,13.9-6.9,15.1c0,1.7,4.3,3.2,6.9,3.2
		c1,0,1.8-0.2,1.8-0.9c0-1.1,4.7-10.2,9.2-19.2c1.1,1.8,3.1,3.6,6.2,3.9c0,0,0,0,0,0c0,0,0.1,0,0.4,0c0.1,0,0.1,0,0.2,0
		c1,0.1,3.1,0.1,5.3-0.5c0.1,0,0.1,0,0.2-0.1c3.7-0.9,7-3.1,9.9-5.8c0,0.1,0,0.1,0,0.2c0,3.7,4.4,6.1,9.1,6.1c1.7,0,3.8-1.7,5.9-4.1
		c-0.1,0.3-0.1,0.6-0.1,0.8c0,1.7,4.3,3.2,6.9,3.2c1.1,0,1.8-0.2,1.8-0.8c0-0.6,10.3-14.3,16.9-21.6c-3.8,6.5-7.9,14.7-7.9,16.4
		c0,3.7,4.4,6.1,9.1,6.1c1.8,0,3.9-1.8,6-4.3c1.2,2.6,4.9,4.2,8.7,4.2c0.4,0,0.9-0.1,1.3-0.3c0.5-0.2,1-0.5,1.5-0.8
		c0.6-0.4,1.1-0.8,1.6-1.3c0.6-0.5,1.1-1.1,1.6-1.7c0.6-0.6,1.1-1.3,1.6-2c0.5-0.7,1.1-1.4,1.6-2.2c0.5-0.7,1-1.5,1.5-2.2
		c0.5-0.7,1-1.5,1.4-2.2c0.4-0.7,0.9-1.4,1.3-2.1c0.4-0.6,0.8-1.3,1.1-1.9c0.3-0.5,0.6-1.1,0.9-1.6c0.4-0.6,0.7-1.2,1.1-1.8
		c0.1-0.2,0.2-0.4,0.1-0.4c0,0,0,0-0.1-0.1c-0.3-0.4-1.3-0.8-1.9-0.8c-0.2,0-0.4,0.1-0.4,0.1c-0.8,0.8-8.9,14.6-12.5,17
		c-0.2,0.1-0.3,0.2-0.5,0.3c-0.2,0.1-0.6,0.2-0.7-0.1c-0.1-0.1-0.1-0.3,0-0.5c0.3-3.1,7.5-17.3,13.1-27.6c3,0.2,5.5,0.3,6.9,0.3
		c1.9,0,3.5-3.3,3.5-5C251.6,27.2,251.5,26.9,251.1,26.9z M70.6,41.7c0,2.2-10.8,18.4-13.6,18.4c-0.4,0-0.6-0.3-0.6-0.9
		c0-4.1,8.4-20.4,12.7-20.4C70.6,38.8,70.6,41.1,70.6,41.7z M153.2,59.7c-1,0-1.3-0.9-1.4-1.7c-0.1-1,0.1-1.8,0.2-2.1
		c1.7-4.2,10.8-17.4,13.3-17.4c0.4,0,0.6,0.3,0.6,0.9C165.9,43.3,157.5,59.7,153.2,59.7z"/>
	<path class="st0" d="M86,74.8c0-2.6-1.2-5.1-2.3-5.1c-0.2,0-0.4,0.1-0.6,0.2c-1.7,1.7-4.3,2.3-7.5,2.3c-8.2,0-31.8-6.5-43.2-9.3
		C46.6,45.1,57.1,14.8,63.9,9.5c0.5-0.4,0.9-0.6,1.4-0.7c0.3-0.1,0.7-0.1,1,0c0.4,0.1,0.8,0.3,1.1,0.6c0.3,0.3,0.5,0.6,0.7,1
		c0.1,0.2,0.1,0.3,0.1,0.5c0,0.2,0,0.4,0,0.5c0.1,0.3,0.4,0.3,0.7,0.3c0.6-0.1,1.1-0.5,1.5-0.9c0.4-0.4,0.8-0.9,1.1-1.5
		c0.5-0.9,0.7-2,0.5-3c-0.2-0.9-0.6-1.6-1.3-2.2c-1.8-1.4-4.1-1.7-6.3-1.3C50.8,5,36.3,42.9,24.5,61.3c-2.9-0.5-5.7-0.8-8.2-0.8
		c-7.2,0-10.9,4.4-10.9,8.4c0,3.4,2.7,6.6,8.3,6.6c5.3,0,10.4-3.2,15.2-8.3c13.5,4.1,42.5,13.4,51.1,13.4C85,80.6,86,77.5,86,74.8z
		 M13.8,71.3c-1.7,0-2.5-1.3-2.5-2.7c0-1.9,1.4-4.1,4.1-4.1c1.7,0,3.8,0.3,6.3,0.9C18.9,69,16.2,71.3,13.8,71.3z"/>
	<path class="st0" d="M43.7,107c-0.1,0-0.2,0-0.3,0c-0.1,0-0.2,0.1-0.3,0.1c-0.1,0-0.2,0-0.3,0c-0.1,0-0.2-0.1-0.3-0.2
		c-0.1-0.1-0.3-0.2-0.4-0.3c-0.2-0.1-0.5-0.3-0.8-0.4c-0.5-0.2-1.1-0.3-1.6-0.2c-0.5,0-1.1,0.2-1.5,0.4c-0.5,0.2-0.9,0.6-1.3,1
		c-0.4,0.4-0.7,0.9-0.9,1.5c-0.3,0.8-0.4,1.6-0.3,2.3c0.1,0.7,0.4,1.4,0.9,2c0.5,0.6,1.2,1,2,1.3c0.6,0.2,1.1,0.3,1.6,0.3
		c0.5,0,0.9-0.1,1.3-0.2c0.4-0.1,0.7-0.3,0.9-0.6c0.2-0.2,0.4-0.5,0.5-0.8c0-0.1,0-0.2,0-0.3c0-0.1-0.1-0.2-0.1-0.2
		c-0.1-0.1-0.2-0.1-0.3-0.1c-0.1,0-0.3,0.1-0.5,0.2c-0.4,0.2-0.7,0.3-1.1,0.4c-0.3,0.1-0.7,0-1-0.1c-0.4-0.1-0.8-0.4-1-0.7
		c-0.3-0.3-0.4-0.7-0.4-1.2c0-0.5,0-1,0.3-1.7c0.1-0.4,0.3-0.8,0.5-1.1c0.2-0.3,0.4-0.6,0.6-0.8c0.2-0.2,0.5-0.3,0.7-0.4
		c0.3-0.1,0.5,0,0.8,0.1c0.3,0.1,0.5,0.2,0.7,0.4c0.2,0.2,0.3,0.4,0.4,0.7c0.1,0.3,0.2,0.7,0.2,1.1c0,0.2,0.1,0.4,0.2,0.5
		c0.1,0.1,0.3,0.2,0.4,0.2c0.2,0,0.3,0,0.5-0.1c0.1-0.1,0.2-0.2,0.2-0.4c0-0.8,0.1-1.2,0.1-2c0-0.3,0-0.4,0-0.5
		C43.9,107.1,43.8,107,43.7,107z"/>
	<path class="st0" d="M55.9,110.8c-1.2-0.3-1.8-0.5-3-0.9c-0.2-0.1-0.4-0.1-0.5,0c-0.1,0.1-0.2,0.2-0.3,0.4c-0.1,0.3,0,0.5,0.2,0.7
		c0.1,0.1,0.1,0.1,0.2,0.2c0.1,0.1,0.2,0.2,0.2,0.3c0,0.1,0,0.2,0,0.3c-0.2,0.8-0.4,1.3-0.6,1.9c-0.9-0.2-1.6-0.5-2.4-0.7
		c0.2-0.6,0.4-1.2,0.6-1.9c0-0.1,0.1-0.2,0.2-0.3c0.1-0.1,0.2-0.1,0.3-0.1c0.1,0,0.1,0,0.2,0c0.3-0.1,0.5-0.2,0.6-0.5
		c0.1-0.2,0-0.3,0-0.5c-0.1-0.1-0.2-0.2-0.4-0.3c-1.2-0.4-1.8-0.5-3-0.9c-0.2-0.1-0.4-0.1-0.5,0c-0.1,0.1-0.2,0.2-0.3,0.4
		c-0.1,0.3,0,0.5,0.2,0.7c0.1,0.1,0.1,0.1,0.1,0.2c0.1,0.1,0.1,0.2,0.2,0.3c0,0.1,0,0.2,0,0.3c-0.6,1.8-0.9,2.7-1.4,4.6
		c0,0.1-0.1,0.2-0.2,0.3c-0.1,0.1-0.2,0.1-0.3,0.1c-0.1,0-0.1,0-0.2,0c-0.3,0.1-0.5,0.2-0.6,0.5c-0.1,0.2,0,0.3,0,0.5
		c0.1,0.1,0.2,0.2,0.4,0.3c1.2,0.4,1.8,0.6,3.1,0.9c0.2,0.1,0.4,0.1,0.5,0c0.1-0.1,0.2-0.2,0.3-0.4c0.1-0.3,0-0.5-0.2-0.7
		c-0.1-0.1-0.1-0.1-0.2-0.2c-0.1-0.1-0.2-0.2-0.2-0.3c0-0.1,0-0.2,0-0.3c0.2-0.6,0.3-1,0.4-1.5c0.8,0.2,1.5,0.5,2.4,0.7
		c-0.1,0.4-0.3,0.9-0.4,1.5c0,0.1-0.1,0.2-0.1,0.3c-0.1,0.1-0.2,0.1-0.3,0.1c-0.1,0-0.1,0-0.2,0c-0.3,0.1-0.5,0.2-0.6,0.5
		c-0.1,0.2,0,0.3,0,0.5c0.1,0.1,0.2,0.2,0.5,0.3c1.2,0.4,1.9,0.5,3.1,0.9c0.2,0.1,0.4,0.1,0.5,0c0.1-0.1,0.2-0.2,0.3-0.4
		c0.1-0.3,0-0.5-0.2-0.7c-0.1-0.1-0.1-0.1-0.2-0.2c-0.1-0.1-0.2-0.2-0.2-0.3c0-0.1,0-0.2,0-0.3c0.5-1.8,0.8-2.8,1.3-4.6
		c0-0.1,0.1-0.2,0.1-0.3c0.1-0.1,0.2-0.1,0.3-0.1c0.1,0,0.1,0,0.2,0c0.3-0.1,0.5-0.2,0.5-0.5c0.1-0.2,0-0.3,0-0.5
		C56.3,111,56.1,110.9,55.9,110.8z"/>
	<path class="st0" d="M65.6,120.9c-0.1-0.1-0.2-0.3-0.2-0.4c0-0.2-0.1-0.5-0.1-0.9c-0.1-1.7-0.2-2.6-0.3-4.4c0-0.2,0-0.4,0-0.5
		c0-0.1,0.1-0.1,0.3-0.2c0.1,0,0.2-0.1,0.3-0.2c0.1-0.1,0.1-0.2,0.2-0.3c0-0.2,0-0.3-0.1-0.5c-0.1-0.1-0.2-0.2-0.5-0.3
		c-1.5-0.4-2.3-0.6-3.9-1c-0.2-0.1-0.4,0-0.5,0c-0.1,0.1-0.2,0.2-0.3,0.4c0,0.1,0,0.3,0,0.4c0,0.1,0.1,0.2,0.2,0.3
		c0.1,0.1,0.1,0.2,0.1,0.3c0,0.1-0.1,0.2-0.2,0.4c-1,1.6-1.5,2.5-2.5,4.1c-0.1,0.2-0.3,0.4-0.3,0.4c-0.1,0.1-0.1,0.1-0.2,0.2
		c-0.1,0-0.1,0-0.2,0.1c-0.1,0.1-0.2,0.1-0.3,0.2c-0.1,0.1-0.1,0.2-0.2,0.3c0,0.2,0,0.3,0,0.5c0.1,0.1,0.2,0.2,0.5,0.3
		c0.7,0.2,1,0.3,1.7,0.4c0.2,0.1,0.4,0.1,0.5,0c0.1-0.1,0.2-0.2,0.3-0.4c0-0.1,0-0.2,0-0.3c0-0.1-0.1-0.2-0.2-0.3
		c-0.1-0.1-0.1-0.1-0.2-0.1c-0.1-0.1-0.1-0.1-0.2-0.2c0-0.1,0-0.2,0-0.3c0-0.1,0.1-0.3,0.2-0.5c0.1-0.1,0.1-0.2,0.2-0.3
		c1,0.3,1.6,0.4,2.6,0.7c0,0.2,0,0.4,0,0.7c0,0.3,0,0.5,0,0.5c0,0.1-0.1,0.1-0.1,0.2c-0.1,0-0.1,0-0.2,0c-0.1,0-0.3,0.1-0.3,0.2
		c-0.1,0.1-0.1,0.2-0.2,0.3c0,0.2,0,0.3,0.1,0.5c0.1,0.1,0.2,0.2,0.5,0.3c1.1,0.3,1.7,0.4,2.9,0.7c0.2,0.1,0.4,0,0.5,0
		c0.1-0.1,0.2-0.2,0.3-0.4c0-0.1,0-0.3,0-0.4C65.8,121.1,65.8,121,65.6,120.9z M60.6,116.9c0.6-0.9,1.1-1.7,1.7-2.8
		c0.1,1.3,0.1,2.2,0.1,3.3C61.8,117.2,61.2,117.1,60.6,116.9z"/>
	<path class="st0" d="M76.1,115.7c-0.1-0.1-0.2-0.2-0.4-0.3c-0.1,0-0.2,0-0.3,0c-0.1,0-0.2,0.1-0.2,0.2c-0.1,0.1-0.2,0.1-0.3,0
		c-0.1,0-0.3-0.1-0.4-0.2c-0.1-0.1-0.3-0.2-0.5-0.3c-0.2-0.1-0.5-0.2-0.8-0.3c-0.6-0.1-1.1-0.1-1.6,0c-0.5,0.1-0.9,0.4-1.2,0.7
		c-0.3,0.3-0.5,0.8-0.7,1.3c-0.1,0.4-0.1,0.8,0,1.2c0.1,0.4,0.3,0.7,0.6,1.1c0.3,0.3,0.8,0.7,1.4,1c0.5,0.3,0.9,0.5,1.1,0.7
		c0.2,0.2,0.4,0.3,0.4,0.5c0.1,0.1,0.1,0.3,0,0.5c0,0.2-0.2,0.4-0.4,0.5c-0.2,0.1-0.5,0.1-0.8,0.1c-0.3-0.1-0.5-0.1-0.7-0.3
		c-0.2-0.1-0.4-0.3-0.6-0.5c-0.2-0.2-0.3-0.5-0.4-0.8c-0.1-0.2-0.2-0.4-0.3-0.5c-0.1-0.1-0.2-0.1-0.4-0.1c-0.2,0-0.3,0.1-0.4,0.2
		c-0.1,0.1-0.2,0.2-0.2,0.4c0,0.6,0,1,0,1.6c0,0.2,0,0.4,0.1,0.5c0.1,0.1,0.2,0.2,0.4,0.2c0.1,0,0.2,0,0.2,0c0.1,0,0.2,0,0.2,0
		c0.1,0,0.1,0,0.2,0c0.1,0,0.2,0,0.3,0c0.1,0,0.2,0.1,0.4,0.1c0.1,0.1,0.3,0.1,0.5,0.2c0.2,0.1,0.4,0.1,0.7,0.2
		c0.7,0.1,1.3,0.1,1.8,0c0.5-0.1,1-0.4,1.3-0.7c0.3-0.3,0.6-0.8,0.7-1.2c0.1-0.4,0.1-0.8,0-1.1c-0.1-0.3-0.3-0.7-0.5-1
		c-0.3-0.3-0.7-0.6-1.2-0.9c-0.6-0.3-1-0.6-1.3-0.8c-0.3-0.2-0.4-0.4-0.5-0.5c-0.1-0.1-0.1-0.3,0-0.4c0-0.2,0.2-0.4,0.3-0.5
		c0.2-0.1,0.4-0.1,0.7-0.1c0.3,0.1,0.5,0.2,0.8,0.3c0.3,0.2,0.5,0.4,0.7,0.7c0.2,0.3,0.4,0.6,0.5,1c0.1,0.2,0.1,0.3,0.3,0.4
		c0.1,0.1,0.3,0.1,0.5,0.1c0.2,0,0.4-0.1,0.4-0.2c0.1-0.1,0.1-0.3,0.1-0.5c-0.1-0.7-0.1-1-0.2-1.7C76.2,116,76.2,115.8,76.1,115.7z"
		/>
	<path class="st0" d="M85.7,118.1c0-0.3-0.1-0.6-0.2-0.7c-0.1-0.1-0.2-0.2-0.4-0.2c-0.1,0-0.2,0-0.3,0c-0.1,0.1-0.2,0.1-0.2,0.2
		c-0.1,0.1-0.2,0.1-0.3,0c-0.1,0-0.3-0.1-0.4-0.2c-0.2-0.1-0.3-0.2-0.5-0.3c-0.2-0.1-0.5-0.2-0.8-0.2c-0.6-0.1-1.2-0.1-1.6,0.1
		c-0.5,0.2-0.9,0.4-1.2,0.8c-0.3,0.4-0.5,0.8-0.6,1.3c-0.1,0.4-0.1,0.8,0,1.2c0.1,0.4,0.3,0.7,0.6,1c0.3,0.3,0.8,0.6,1.4,0.9
		c0.5,0.3,0.9,0.5,1.2,0.6c0.2,0.2,0.4,0.3,0.5,0.5c0.1,0.1,0.1,0.3,0.1,0.5c0,0.2-0.2,0.4-0.4,0.5c-0.2,0.1-0.5,0.1-0.8,0.1
		c-0.3,0-0.5-0.1-0.7-0.2c-0.2-0.1-0.4-0.3-0.6-0.5c-0.2-0.2-0.3-0.5-0.4-0.8c-0.1-0.2-0.2-0.4-0.3-0.5c-0.1-0.1-0.3-0.1-0.4-0.1
		c-0.2,0-0.3,0.1-0.4,0.2c-0.1,0.1-0.1,0.2-0.1,0.4c0,0.6,0,1,0,1.6c0,0.2,0,0.4,0.1,0.5c0.1,0.1,0.2,0.2,0.4,0.2c0.1,0,0.2,0,0.2,0
		c0.1,0,0.2,0,0.2,0c0.1,0,0.1,0,0.2,0c0.1,0,0.2,0,0.3,0c0.1,0,0.2,0.1,0.4,0.1c0.1,0.1,0.3,0.1,0.5,0.2c0.2,0.1,0.4,0.1,0.7,0.2
		c0.7,0.1,1.3,0.1,1.8-0.1c0.5-0.2,1-0.4,1.3-0.8c0.3-0.4,0.5-0.8,0.6-1.3c0.1-0.4,0.1-0.8,0-1.1c-0.1-0.3-0.3-0.7-0.6-1
		c-0.3-0.3-0.7-0.6-1.3-0.9c-0.6-0.3-1-0.6-1.3-0.8c-0.3-0.2-0.4-0.4-0.5-0.5c-0.1-0.1-0.1-0.3-0.1-0.4c0-0.2,0.1-0.4,0.3-0.5
		c0.2-0.1,0.4-0.2,0.7-0.1c0.3,0,0.5,0.1,0.8,0.3c0.3,0.2,0.5,0.4,0.7,0.6c0.2,0.3,0.4,0.6,0.5,1c0.1,0.2,0.2,0.3,0.3,0.4
		c0.1,0.1,0.3,0.1,0.5,0.1c0.2,0,0.4-0.1,0.4-0.2c0.1-0.1,0.1-0.3,0.1-0.5C85.8,119.1,85.8,118.7,85.7,118.1z"/>
	<path class="st0" d="M92.7,118.4c-1.2-0.2-1.8-0.2-3.1-0.4c-0.2,0-0.4,0-0.5,0.1c-0.1,0.1-0.2,0.2-0.2,0.4c0,0.3,0.1,0.5,0.3,0.7
		c0.1,0.1,0.1,0.1,0.2,0.1c0.1,0.1,0.2,0.2,0.2,0.2c0,0.1,0,0.2,0,0.3c-0.3,1.9-0.4,2.9-0.7,4.8c0,0.1-0.1,0.2-0.1,0.3
		c-0.1,0.1-0.1,0.1-0.3,0.2c-0.1,0-0.1,0-0.2,0.1c-0.3,0.1-0.4,0.3-0.5,0.6c0,0.2,0,0.3,0.1,0.5c0.1,0.1,0.3,0.2,0.5,0.2
		c1.3,0.2,1.9,0.3,3.2,0.4c0.2,0,0.4,0,0.5-0.1c0.1-0.1,0.2-0.2,0.2-0.4c0-0.3-0.1-0.5-0.3-0.7c-0.1-0.1-0.1-0.1-0.2-0.1
		c-0.1-0.1-0.2-0.2-0.2-0.2c0-0.1,0-0.2,0-0.3c0.3-1.9,0.4-2.9,0.6-4.8c0-0.1,0.1-0.2,0.1-0.3c0.1-0.1,0.1-0.1,0.3-0.2
		c0.1,0,0.1,0,0.2-0.1c0.3-0.1,0.4-0.3,0.5-0.6c0-0.2,0-0.3-0.1-0.5C93.1,118.5,92.9,118.4,92.7,118.4z"/>
	<path class="st0" d="M102.3,120.2c-0.1-0.3-0.1-0.6-0.2-0.7c-0.1-0.1-0.2-0.2-0.4-0.2c-0.1,0-0.2,0-0.3,0.1
		c-0.1,0.1-0.2,0.1-0.2,0.2c-0.1,0.1-0.2,0.1-0.3,0.1c-0.1,0-0.3-0.1-0.4-0.1c-0.2-0.1-0.3-0.2-0.5-0.2c-0.2-0.1-0.5-0.1-0.8-0.2
		c-0.6-0.1-1.2,0-1.6,0.2c-0.5,0.2-0.9,0.5-1.1,0.8c-0.3,0.4-0.5,0.8-0.5,1.3c-0.1,0.4,0,0.8,0.1,1.2c0.1,0.4,0.3,0.7,0.7,1
		c0.3,0.3,0.8,0.6,1.4,0.8c0.5,0.2,0.9,0.4,1.2,0.6c0.3,0.2,0.4,0.3,0.5,0.4c0.1,0.1,0.1,0.3,0.1,0.5c0,0.2-0.1,0.4-0.3,0.5
		c-0.2,0.1-0.5,0.2-0.8,0.1c-0.3,0-0.5-0.1-0.7-0.2c-0.2-0.1-0.4-0.3-0.6-0.5c-0.2-0.2-0.3-0.4-0.5-0.8c-0.1-0.2-0.2-0.4-0.3-0.4
		c-0.1-0.1-0.3-0.1-0.4-0.1c-0.2,0-0.3,0.1-0.4,0.2c-0.1,0.1-0.1,0.2-0.1,0.4c0.1,0.6,0.1,1,0.1,1.6c0,0.2,0.1,0.4,0.2,0.5
		c0.1,0.1,0.2,0.2,0.4,0.2c0.1,0,0.2,0,0.2,0c0.1,0,0.1,0,0.2-0.1c0.1,0,0.1,0,0.2-0.1c0.1,0,0.2,0,0.3,0c0.1,0,0.2,0,0.4,0.1
		c0.1,0,0.3,0.1,0.5,0.2c0.2,0.1,0.4,0.1,0.7,0.1c0.7,0.1,1.3,0,1.8-0.2c0.5-0.2,0.9-0.5,1.2-0.8c0.3-0.4,0.5-0.8,0.5-1.3
		c0-0.4,0-0.8-0.1-1.1c-0.1-0.3-0.3-0.7-0.6-0.9c-0.3-0.3-0.8-0.6-1.3-0.8c-0.6-0.3-1-0.5-1.3-0.7c-0.3-0.2-0.5-0.3-0.5-0.5
		c-0.1-0.1-0.1-0.3-0.1-0.4c0-0.2,0.1-0.4,0.3-0.5c0.2-0.1,0.4-0.2,0.7-0.2c0.3,0,0.5,0.1,0.8,0.3c0.3,0.1,0.5,0.3,0.7,0.6
		c0.2,0.3,0.4,0.6,0.6,0.9c0.1,0.2,0.2,0.3,0.3,0.4c0.1,0.1,0.3,0.1,0.5,0.1c0.2,0,0.3-0.1,0.4-0.3c0.1-0.1,0.1-0.3,0-0.5
		C102.5,121.2,102.5,120.9,102.3,120.2z"/>
	<path class="st0" d="M116.9,121c-0.5-0.5-1.2-1-1.9-1.3c-0.7-0.3-1.5-0.5-2.3-0.6c-1.1-0.1-1.9,0-2.7,0.3c-0.7,0.2-1.3,0.6-1.7,1.1
		c-0.4,0.5-0.6,1.1-0.7,1.9c0,0.5,0,0.9,0.2,1.2c0.2,0.3,0.5,0.5,0.8,0.5c0.3,0,0.6-0.1,0.8-0.2c0.2-0.2,0.3-0.4,0.4-0.8
		c0-0.2,0-0.4,0-0.5c0-0.1-0.1-0.3-0.1-0.4c0-0.1-0.1-0.2-0.1-0.3c0-0.1,0-0.2,0-0.4c0-0.3,0.1-0.5,0.3-0.7c0.2-0.2,0.5-0.4,1-0.5
		c0.4-0.1,1-0.2,1.7-0.1c0.7,0,1.3,0.2,2,0.5c0.6,0.3,1.1,0.7,1.6,1.1c0.5,0.5,0.9,1.1,1.1,1.7s0.4,1.3,0.3,1.9
		c0,0.6-0.1,1.1-0.3,1.5c-0.2,0.4-0.4,0.6-0.7,0.8c-0.3,0.2-0.6,0.2-0.9,0.2c-0.2,0-0.5-0.1-0.7-0.2c0,0-0.1,0-0.1-0.1
		c0.6-0.3,1.1-0.6,1.4-0.9c0.4-0.5,0.6-0.9,0.6-1.4c0-0.4-0.1-0.7-0.2-0.9c-0.2-0.2-0.4-0.3-0.6-0.3c-0.3,0-0.5,0.1-0.7,0.3
		c-0.2,0.2-0.3,0.4-0.3,0.7c0,0.1,0,0.2,0,0.3c0,0.1,0,0.2,0,0.2c0,0.1,0,0.2,0,0.3c0,0.2,0,0.3-0.1,0.5c-0.1,0.2-0.2,0.3-0.3,0.5
		c-0.1,0.1-0.2,0.2-0.3,0.2c0,0,0,0,0,0c-0.2-0.3-0.5-0.7-0.8-1.2c-0.2-0.3-0.3-0.5-0.4-0.8c0.3,0,0.6-0.1,0.9-0.2
		c0.4-0.2,0.7-0.4,1-0.7c0.2-0.3,0.4-0.7,0.4-1.1c0-0.4-0.1-0.7-0.2-1c-0.2-0.3-0.4-0.5-0.7-0.7c-0.3-0.2-0.7-0.3-1.1-0.3
		c-0.5,0-1,0.1-1.4,0.3c-0.4,0.2-0.7,0.5-0.9,0.9c-0.2,0.4-0.4,0.8-0.4,1.3c0,0.3,0,0.6,0,0.9c-0.5,0-1,0.1-1.5,0.2
		c-0.5,0.2-1,0.4-1.3,0.8c-0.3,0.3-0.5,0.7-0.5,1.2c-0.1,0.7,0.1,1.3,0.5,1.6c0.4,0.4,1,0.6,1.9,0.7c0.4,0,0.8,0,1.1,0
		c0.3-0.1,0.6-0.1,0.8-0.3c0.2-0.1,0.3-0.2,0.5-0.4c0.1,0.1,0.2,0.2,0.3,0.3c0.3,0.2,0.6,0.4,1,0.6c0.4,0.1,0.8,0.2,1.3,0.2
		c0.8,0,1.5-0.1,2.1-0.4c0.6-0.3,1.1-0.7,1.4-1.3c0.3-0.6,0.5-1.3,0.5-2.1c0-0.9-0.1-1.7-0.4-2.4C117.9,122.3,117.4,121.6,116.9,121
		z M111.2,127.7c-0.1,0.1-0.3,0.1-0.5,0.1c-0.3,0-0.5-0.2-0.7-0.4c-0.2-0.3-0.2-0.6-0.2-0.9c0-0.3,0.1-0.5,0.1-0.7
		c0.1-0.2,0.2-0.3,0.3-0.4c0.1-0.1,0.1-0.1,0.2-0.1c0.1,0.3,0.2,0.6,0.3,0.9c0.2,0.4,0.4,0.9,0.7,1.3c0,0,0,0,0,0
		C111.4,127.6,111.3,127.7,111.2,127.7z M112.7,122.2c0.1-0.2,0.2-0.2,0.3-0.2c0.1,0,0.2,0.1,0.2,0.3c0.1,0.2,0.1,0.4,0.1,0.6
		c0,0.3-0.1,0.6-0.2,0.8c-0.1,0.2-0.2,0.4-0.3,0.6c0,0-0.1,0.1-0.1,0.1c-0.1-0.2-0.1-0.4-0.2-0.6c0-0.3-0.1-0.6-0.1-0.8
		C112.5,122.6,112.6,122.3,112.7,122.2z"/>
	<path class="st0" d="M131.1,126.4c-0.1,0-0.2,0-0.3,0c-0.1,0-0.2,0.1-0.4,0.3c-0.3,0.3-0.6,0.6-0.9,0.7c-0.3,0.2-0.6,0.3-1,0.3
		c-0.5,0-0.9-0.1-1.2-0.3c-0.3-0.2-0.6-0.6-0.8-1c-0.2-0.5-0.3-1-0.3-1.6c0-0.4,0-0.8,0.1-1.2c0.1-0.4,0.2-0.7,0.3-0.9
		c0.1-0.3,0.3-0.5,0.5-0.6c0.2-0.1,0.5-0.2,0.8-0.2c0.3,0,0.5,0,0.7,0.1c0.2,0.1,0.4,0.3,0.6,0.5c0.2,0.2,0.4,0.6,0.6,1
		c0.1,0.2,0.2,0.3,0.3,0.4c0.1,0.1,0.3,0.1,0.5,0c0.2,0,0.3-0.1,0.4-0.3c0.1-0.1,0.1-0.3,0.1-0.4c-0.2-0.8-0.3-1.2-0.6-1.9
		c-0.1-0.3-0.1-0.4-0.2-0.5c-0.1-0.1-0.2-0.1-0.3-0.1c-0.1,0-0.2,0-0.3,0.1c-0.1,0.1-0.1,0.1-0.2,0.2c-0.1,0.1-0.2,0.1-0.3,0.1
		c-0.1,0-0.2,0-0.4-0.1c-0.1-0.1-0.3-0.1-0.5-0.2c-0.2-0.1-0.5-0.1-0.9-0.1c-0.6,0-1.1,0.1-1.6,0.3c-0.5,0.2-0.9,0.5-1.3,0.9
		c-0.4,0.4-0.7,0.9-0.9,1.4c-0.2,0.5-0.3,1.1-0.3,1.7c0,0.9,0.1,1.6,0.5,2.3c0.3,0.7,0.8,1.2,1.5,1.6c0.6,0.4,1.4,0.6,2.3,0.6
		c0.6,0,1.1-0.1,1.6-0.2c0.4-0.2,0.8-0.4,1.1-0.6c0.3-0.3,0.5-0.5,0.7-0.8c0.2-0.3,0.2-0.6,0.2-0.9c0-0.1,0-0.2-0.1-0.3
		C131.2,126.5,131.1,126.4,131.1,126.4z"/>
	<path class="st0" d="M142.5,122.8c-0.2-0.5-0.6-1-1-1.3c-0.4-0.4-0.9-0.6-1.5-0.8c-0.6-0.2-1.2-0.3-1.9-0.2c-0.6,0-1.2,0.1-1.7,0.4
		c-0.5,0.2-1,0.5-1.3,0.9c-0.4,0.4-0.7,0.9-0.9,1.4c-0.2,0.5-0.3,1.1-0.3,1.8c0,0.7,0.1,1.3,0.4,1.8c0.2,0.5,0.5,1,1,1.4
		c0.4,0.4,0.9,0.7,1.5,0.8c0.6,0.2,1.2,0.3,1.9,0.2c0.7,0,1.3-0.2,1.8-0.4c0.5-0.2,1-0.6,1.3-1c0.4-0.4,0.6-0.9,0.8-1.5
		c0.2-0.6,0.2-1.2,0.2-1.8C142.8,123.9,142.7,123.4,142.5,122.8z M139.9,127c-0.1,0.3-0.2,0.5-0.4,0.6c-0.2,0.1-0.4,0.2-0.6,0.2
		c-0.3,0-0.5-0.1-0.7-0.3c-0.2-0.2-0.4-0.4-0.6-0.7c-0.2-0.3-0.3-0.6-0.4-1c-0.1-0.4-0.2-0.8-0.3-1.1c-0.1-0.4-0.1-0.8-0.1-1.1
		c0-0.4,0-0.7,0.1-1c0.1-0.3,0.2-0.5,0.4-0.6c0.2-0.1,0.4-0.2,0.6-0.2c0.2,0,0.5,0.1,0.7,0.3c0.2,0.2,0.4,0.4,0.6,0.7
		c0.2,0.3,0.3,0.6,0.4,1c0.1,0.4,0.2,0.8,0.3,1.1c0.1,0.4,0.1,0.8,0.1,1.1C140.1,126.4,140,126.8,139.9,127z"/>
	<path class="st0" d="M157,126.6c-0.1,0-0.1-0.1-0.2-0.1c-0.1,0-0.2-0.1-0.2-0.2c-0.1-0.1-0.1-0.2-0.1-0.3c-0.3-1.9-0.5-2.8-0.8-4.7
		c0-0.1,0-0.3,0-0.3c0-0.1,0.1-0.2,0.2-0.2c0.1,0,0.1-0.1,0.2-0.1c0.1-0.1,0.2-0.2,0.3-0.3c0-0.1,0.1-0.2,0-0.4
		c0-0.2-0.1-0.3-0.2-0.4c-0.1-0.1-0.3-0.1-0.5-0.1c-0.8,0.1-1.2,0.1-2.1,0.2c-0.3,0-0.6,0.1-0.7,0.3c-0.2,0.2-0.3,0.5-0.4,0.9
		c-0.4,1.5-0.6,2.5-0.9,3.8c-0.5-1.2-1-2.1-1.6-3.5c-0.2-0.4-0.4-0.7-0.6-0.8c-0.2-0.1-0.5-0.2-0.8-0.2c-0.8,0.1-1.2,0.1-2.1,0.1
		c-0.4,0-0.7,0.2-0.6,0.6c0,0.2,0,0.3,0.1,0.4c0.1,0.1,0.2,0.2,0.3,0.2c0.1,0,0.1,0.1,0.2,0.1c0.1,0.1,0.2,0.1,0.3,0.2
		s0.1,0.2,0.1,0.3c0,1.9,0,2.9,0,4.8c0,0.2,0,0.3-0.1,0.4c0,0.1-0.1,0.1-0.2,0.2c-0.1,0-0.1,0-0.1,0.1c-0.1,0.1-0.3,0.2-0.3,0.3
		c-0.1,0.1-0.1,0.2-0.1,0.4c0,0.2,0.1,0.3,0.2,0.4c0.1,0.1,0.3,0.1,0.5,0.1c0.7,0,1-0.1,1.7-0.1c0.2,0,0.4-0.1,0.5-0.2
		c0.1-0.1,0.1-0.3,0.1-0.5c0-0.1,0-0.2-0.1-0.3c-0.1-0.1-0.1-0.2-0.2-0.2c-0.1,0-0.1-0.1-0.2-0.1c-0.2-0.1-0.3-0.2-0.3-0.3
		c0-0.1-0.1-0.2-0.1-0.3c0-1.4,0-2.3,0-3.4c0.6,1.3,1.1,2.3,1.9,4c0.1,0.3,0.3,0.5,0.4,0.7c0.1,0.1,0.2,0.2,0.4,0.3
		c0.1,0,0.3,0,0.4,0c0.2,0,0.4-0.1,0.5-0.2c0.1-0.1,0.3-0.4,0.4-0.8c0.5-1.8,0.8-2.9,1.2-4.3c0.2,1.1,0.3,2,0.6,3.4
		c0,0.2,0,0.3,0,0.3c0,0.1-0.1,0.1-0.2,0.2c-0.1,0-0.1,0.1-0.2,0.1c-0.1,0.1-0.2,0.2-0.3,0.3c-0.1,0.1-0.1,0.2-0.1,0.4
		c0,0.2,0.1,0.3,0.2,0.4c0.1,0.1,0.3,0.1,0.5,0.1c1.2-0.1,1.8-0.2,3-0.3c0.2,0,0.4-0.1,0.5-0.2s0.1-0.3,0.1-0.5
		c0-0.2-0.1-0.3-0.1-0.4C157.2,126.7,157.1,126.6,157,126.6z"/>
	<path class="st0" d="M167,119.5c-0.4-0.4-0.9-0.7-1.6-0.9c-0.7-0.2-1.5-0.2-2.4-0.1c-1.2,0.2-1.9,0.2-3.1,0.4
		c-0.2,0-0.4,0.1-0.5,0.2c-0.1,0.1-0.1,0.3-0.1,0.5c0,0.3,0.2,0.5,0.5,0.6c0.1,0,0.1,0,0.2,0.1c0.1,0.1,0.2,0.1,0.3,0.2
		c0.1,0.1,0.1,0.2,0.1,0.3c0.2,1.9,0.3,2.9,0.6,4.8c0,0.1,0,0.2,0,0.3c0,0.1-0.1,0.2-0.2,0.2c-0.1,0.1-0.1,0.1-0.2,0.1
		c-0.2,0.2-0.4,0.4-0.3,0.7c0,0.2,0.1,0.3,0.2,0.4s0.3,0.1,0.5,0.1c1.3-0.2,2-0.2,3.4-0.4c0.2,0,0.4-0.1,0.5-0.2
		c0.1-0.1,0.1-0.3,0.1-0.5c0-0.2-0.1-0.3-0.1-0.4c-0.1-0.1-0.2-0.1-0.3-0.2c-0.2,0-0.2-0.1-0.4-0.1c-0.1,0-0.2-0.1-0.3-0.2
		c-0.1-0.1-0.1-0.2-0.1-0.3c0-0.3-0.1-0.6-0.1-0.8c0.4,0,0.8,0,1.2,0c0.7-0.1,1.4-0.3,1.9-0.6c0.5-0.3,0.8-0.7,1-1.1
		c0.2-0.5,0.3-1,0.2-1.5C167.6,120.5,167.4,120,167,119.5z M164.9,122.3c-0.1,0.3-0.2,0.5-0.5,0.6c-0.2,0.2-0.5,0.3-0.7,0.3
		c-0.1,0-0.3,0-0.4,0c-0.1-1.1-0.3-2.1-0.5-3.5c0,0,0.1,0,0.1,0c0.3,0,0.7,0,0.9,0.1c0.3,0.1,0.5,0.3,0.7,0.6
		c0.2,0.3,0.3,0.6,0.4,0.9C165,121.7,165,122.1,164.9,122.3z"/>
	<path class="st0" d="M179.7,123.5c-0.1-0.1-0.2-0.2-0.3-0.2c-0.1-0.1-0.3-0.2-0.4-0.3c-0.1-0.1-0.3-0.4-0.5-0.8
		c-0.8-1.5-1.2-2.3-2-3.9c-0.1-0.2-0.2-0.3-0.2-0.4c0-0.1,0.1-0.2,0.2-0.3c0.1-0.1,0.2-0.2,0.2-0.3c0-0.1,0-0.2,0-0.4
		c0-0.2-0.1-0.3-0.2-0.4c-0.1-0.1-0.3-0.1-0.5-0.1c-1.6,0.3-2.3,0.4-3.9,0.7c-0.2,0-0.4,0.1-0.5,0.2c-0.1,0.1-0.1,0.3-0.1,0.5
		c0,0.1,0.1,0.3,0.1,0.4c0.1,0.1,0.2,0.2,0.3,0.2c0.1,0,0.2,0.1,0.2,0.2c0,0.1,0,0.2,0,0.5c-0.3,1.9-0.4,2.9-0.7,4.8
		c0,0.3-0.1,0.4-0.1,0.5c0,0.1-0.1,0.2-0.2,0.3c0,0-0.1,0.1-0.1,0.1c-0.1,0.1-0.2,0.2-0.2,0.3c0,0.1-0.1,0.2,0,0.3
		c0,0.2,0.1,0.3,0.2,0.4c0.1,0.1,0.3,0.1,0.5,0.1c0.7-0.1,1-0.2,1.7-0.3c0.2,0,0.4-0.1,0.5-0.2c0.1-0.1,0.1-0.3,0.1-0.5
		c0-0.1-0.1-0.2-0.1-0.3c-0.1-0.1-0.2-0.1-0.3-0.2c-0.1,0-0.1,0-0.2-0.1c-0.1,0-0.2-0.1-0.2-0.1c-0.1-0.1-0.1-0.2-0.1-0.3
		c0-0.1,0-0.3,0-0.5c0-0.1,0-0.2,0.1-0.4c1-0.2,1.7-0.3,2.6-0.4c0.1,0.2,0.2,0.4,0.3,0.6c0.1,0.2,0.2,0.4,0.2,0.5
		c0,0.1,0,0.2-0.1,0.2c-0.1,0-0.1,0.1-0.1,0.1c-0.1,0.1-0.2,0.2-0.2,0.3c0,0.1-0.1,0.2,0,0.4c0,0.2,0.1,0.3,0.2,0.4
		c0.1,0.1,0.3,0.1,0.5,0.1c1.2-0.2,1.7-0.3,2.9-0.5c0.2,0,0.4-0.1,0.5-0.3c0.1-0.1,0.1-0.3,0.1-0.5
		C179.8,123.7,179.8,123.6,179.7,123.5z M173.2,121.7c0.1-1.1,0.3-2,0.4-3.3c0.6,1.2,1,2,1.5,3C174.4,121.5,173.8,121.6,173.2,121.7
		z"/>
	<path class="st0" d="M189.8,119.6c-0.1-0.1-0.1-0.1-0.2-0.1c-0.1,0-0.2,0-0.3,0.1c-0.1,0.1-0.2,0.2-0.3,0.4
		c-0.2,0.4-0.4,0.7-0.7,0.9c-0.3,0.2-0.6,0.4-0.9,0.5c-0.5,0.1-0.9,0.1-1.3-0.1c-0.4-0.2-0.7-0.4-1-0.8c-0.3-0.4-0.5-0.9-0.6-1.6
		c-0.1-0.4-0.1-0.8-0.1-1.2c0-0.4,0-0.7,0.1-1c0.1-0.3,0.2-0.5,0.4-0.7c0.2-0.2,0.4-0.3,0.7-0.4c0.3-0.1,0.5-0.1,0.7,0
		c0.2,0,0.5,0.2,0.7,0.4c0.2,0.2,0.5,0.5,0.8,0.9c0.1,0.2,0.3,0.3,0.4,0.3c0.1,0,0.3,0,0.5-0.1c0.2-0.1,0.3-0.2,0.3-0.3
		c0.1-0.1,0-0.3,0-0.4c-0.4-0.7-0.6-1.1-1-1.8c-0.1-0.2-0.2-0.4-0.3-0.4c-0.1-0.1-0.2-0.1-0.3-0.1c-0.1,0-0.2,0.1-0.3,0.2
		c-0.1,0.1-0.1,0.2-0.2,0.2c-0.1,0.1-0.1,0.1-0.3,0.2c-0.1,0-0.2,0-0.4,0c-0.1,0-0.3-0.1-0.6-0.1c-0.2,0-0.5,0-0.9,0.1
		c-0.5,0.1-1,0.3-1.5,0.7c-0.4,0.3-0.8,0.7-1.1,1.2c-0.3,0.5-0.5,1-0.6,1.5c-0.1,0.6-0.1,1.1,0,1.8c0.2,0.9,0.5,1.6,1,2.1
		c0.5,0.6,1.1,1,1.8,1.2c0.7,0.2,1.5,0.3,2.4,0.1c0.6-0.1,1.1-0.3,1.5-0.6c0.4-0.3,0.7-0.5,1-0.9c0.2-0.3,0.4-0.6,0.5-1
		c0.1-0.3,0.1-0.6,0-0.9C189.8,119.7,189.8,119.7,189.8,119.6z"/>
	<path class="st0" d="M198.8,112c-0.2-0.3-0.3-0.5-0.5-0.6c-0.2-0.1-0.4-0.1-0.6,0c-0.1,0-0.2,0.1-0.4,0.2c-0.1,0.1-0.2,0.1-0.4,0.2
		c-0.1,0.1-0.3,0.1-0.5,0.2c-1.2,0.3-1.8,0.5-3,0.8c-0.2,0.1-0.4,0.1-0.5,0.1c-0.1,0-0.3,0-0.4,0c-0.1,0-0.3,0-0.4,0
		c-0.2,0.1-0.4,0.2-0.5,0.3c-0.1,0.2-0.1,0.4-0.1,0.7c0,0.6,0,0.9,0,1.5c0,0.2,0.1,0.4,0.2,0.5c0.1,0.1,0.3,0.2,0.5,0.2
		c0.2,0,0.3-0.1,0.4-0.1c0.1-0.1,0.2-0.2,0.2-0.4c0.1-0.4,0.1-0.7,0.2-0.9c0.1-0.2,0.2-0.4,0.3-0.5c0.1-0.1,0.3-0.2,0.4-0.2
		c0.1,0,0.2,0,0.3-0.1c0.5,2.1,0.8,3.2,1.3,5.3c0,0.1,0,0.2,0,0.3c0,0.1-0.1,0.2-0.2,0.3c-0.1,0.1-0.1,0.1-0.2,0.1
		c-0.2,0.2-0.3,0.4-0.2,0.7c0,0.2,0.1,0.3,0.3,0.4c0.1,0.1,0.3,0.1,0.5,0c1.2-0.3,1.9-0.5,3.1-0.8c0.4-0.1,0.6-0.4,0.5-0.8
		c-0.1-0.3-0.3-0.5-0.5-0.5c-0.1,0-0.1,0-0.2-0.1c-0.1,0-0.2-0.1-0.3-0.1c-0.1-0.1-0.1-0.2-0.1-0.3c-0.5-2.1-0.8-3.1-1.4-5.2
		c0.1,0,0.2,0,0.3-0.1c0.2,0,0.3-0.1,0.5,0c0.1,0,0.3,0.1,0.5,0.3c0.2,0.1,0.4,0.4,0.6,0.7c0.1,0.2,0.3,0.3,0.4,0.3
		c0.1,0,0.3,0,0.4-0.1c0.2-0.1,0.3-0.2,0.3-0.4c0-0.2,0-0.3-0.1-0.5C199.3,112.8,199.1,112.5,198.8,112z"/>
	<path class="st0" d="M210.4,110.5c-0.4-0.4-0.8-0.8-1.3-1c-0.5-0.2-1-0.4-1.6-0.4c-0.6,0-1.2,0.1-1.9,0.3c-0.6,0.2-1.1,0.4-1.6,0.8
		c-0.4,0.4-0.8,0.8-1.1,1.2c-0.3,0.5-0.4,1-0.5,1.6c-0.1,0.6,0,1.2,0.2,1.8c0.2,0.7,0.5,1.2,0.8,1.7c0.4,0.5,0.8,0.8,1.3,1.1
		c0.5,0.3,1.1,0.4,1.7,0.4c0.6,0,1.3-0.1,2-0.3c0.6-0.2,1.2-0.5,1.6-0.8c0.5-0.4,0.8-0.8,1.1-1.3c0.3-0.5,0.4-1,0.4-1.6
		c0-0.6,0-1.2-0.3-1.8C211.1,111.4,210.8,110.9,210.4,110.5z M208.8,115.9c-0.1,0.2-0.3,0.3-0.5,0.4c-0.2,0.1-0.5,0.1-0.8-0.1
		c-0.3-0.1-0.5-0.3-0.7-0.5c-0.2-0.2-0.5-0.5-0.7-0.9c-0.2-0.3-0.4-0.7-0.6-1c-0.2-0.4-0.3-0.7-0.4-1c-0.1-0.4-0.2-0.7-0.1-1
		c0-0.3,0.1-0.5,0.2-0.7c0.1-0.2,0.3-0.3,0.5-0.4c0.2-0.1,0.5,0,0.7,0.1c0.3,0.1,0.5,0.3,0.7,0.5c0.2,0.2,0.5,0.5,0.7,0.9
		c0.2,0.3,0.4,0.7,0.6,1c0.2,0.4,0.3,0.7,0.4,1c0.1,0.4,0.2,0.7,0.1,1C209,115.5,208.9,115.7,208.8,115.9z"/>
	<path class="st0" d="M220.7,109.6c-0.2-0.3-0.6-0.5-1-0.6c-0.4-0.1-0.9-0.2-1.5-0.2c-0.7,0-1.2,0-1.5-0.1c-0.3,0-0.6-0.1-0.7-0.2
		c-0.1-0.1-0.2-0.2-0.3-0.4c-0.1-0.2-0.1-0.4,0-0.6c0.1-0.2,0.3-0.3,0.6-0.4c0.3-0.1,0.5-0.1,0.8-0.1c0.3,0,0.6,0.1,0.9,0.2
		c0.3,0.1,0.6,0.3,0.9,0.6c0.2,0.1,0.3,0.2,0.5,0.2c0.2,0,0.3,0,0.5-0.2c0.2-0.1,0.3-0.3,0.3-0.4c0-0.1-0.1-0.3-0.2-0.5
		c-0.4-0.5-0.6-0.8-1-1.3c-0.2-0.3-0.4-0.4-0.5-0.5c-0.1-0.1-0.3-0.1-0.4,0c-0.1,0-0.2,0.1-0.3,0.2c0,0.1-0.1,0.2-0.1,0.3
		c0,0.1-0.1,0.1-0.2,0.2c-0.1,0-0.3,0.1-0.5,0.1c-0.2,0-0.4,0-0.6,0c-0.2,0-0.5,0.1-0.8,0.2c-0.6,0.2-1.1,0.5-1.4,0.9
		c-0.4,0.4-0.6,0.8-0.7,1.2c-0.1,0.5-0.1,0.9,0.1,1.4c0.1,0.4,0.3,0.8,0.6,1.1c0.3,0.3,0.6,0.5,1,0.6c0.4,0.1,1,0.2,1.7,0.1
		c0.6,0,1,0,1.3,0c0.3,0,0.5,0.1,0.6,0.2c0.1,0.1,0.2,0.2,0.3,0.4c0.1,0.2,0,0.4-0.1,0.6c-0.1,0.2-0.3,0.3-0.6,0.5
		c-0.3,0.1-0.5,0.1-0.8,0.1c-0.3,0-0.5-0.1-0.8-0.2c-0.3-0.1-0.5-0.3-0.8-0.5c-0.2-0.2-0.4-0.2-0.5-0.3c-0.1,0-0.3,0-0.4,0.1
		c-0.2,0.1-0.2,0.2-0.3,0.4c0,0.1,0,0.3,0.1,0.4c0.3,0.6,0.5,0.8,0.8,1.4c0.1,0.2,0.2,0.3,0.4,0.4c0.1,0.1,0.3,0.1,0.4,0
		c0.1,0,0.2-0.1,0.2-0.1c0.1,0,0.1-0.1,0.2-0.1c0.1-0.1,0.1-0.1,0.2-0.1c0.1,0,0.1-0.1,0.2-0.1c0.1,0,0.2-0.1,0.4-0.1
		c0.2,0,0.3,0,0.5-0.1c0.2,0,0.4-0.1,0.7-0.2c0.7-0.2,1.2-0.5,1.6-0.9c0.4-0.4,0.7-0.8,0.8-1.3c0.1-0.5,0.1-0.9-0.1-1.4
		C221.1,110.1,220.9,109.8,220.7,109.6z"/>
	<path class="st0" d="M84.9,94.1c-0.4-0.4-0.9-0.7-1.4-0.9c-0.6-0.2-1.2-0.3-1.8-0.3h-3.3c-0.2,0-0.4,0-0.5,0.1
		c-0.1,0.1-0.2,0.2-0.2,0.4c0,0.3,0.1,0.5,0.4,0.6l0.2,0.1c0.1,0.1,0.2,0.1,0.2,0.2c0,0.1,0.1,0.2,0.1,0.3v4.6c0,0.1,0,0.2-0.1,0.3
		c0,0.1-0.1,0.1-0.2,0.2l-0.2,0.1c-0.2,0.1-0.4,0.3-0.4,0.6c0,0.2,0.1,0.3,0.2,0.4c0.1,0.1,0.3,0.1,0.5,0.1h3.8
		c0.8,0,1.5-0.2,2.1-0.5c0.6-0.3,1.1-0.8,1.4-1.3c0.3-0.6,0.5-1.2,0.5-1.9c0-0.6-0.1-1.2-0.3-1.8C85.6,95,85.3,94.5,84.9,94.1z
		 M83.3,98.7c-0.1,0.4-0.3,0.7-0.6,0.9c-0.2,0.2-0.5,0.3-0.8,0.3h-0.1c-0.2,0-0.4-0.1-0.6-0.2c-0.1-0.1-0.2-0.4-0.2-0.7v-5h0.3
		c0.3,0,0.6,0.1,0.9,0.2c0.3,0.2,0.5,0.4,0.7,0.6c0.2,0.3,0.3,0.6,0.4,1c0.1,0.4,0.1,0.8,0.1,1.3C83.6,97.8,83.5,98.3,83.3,98.7z"/>
	<path class="st0" d="M96.3,101.2c0.1,0,0.2,0.1,0.4,0.1c0.2,0,0.4-0.1,0.5-0.2c0.1-0.1,0.2-0.3,0.3-0.6l0.3-1.3
		c0.1-0.2,0-0.4,0-0.5c-0.1-0.1-0.2-0.2-0.4-0.3c-0.2,0-0.3,0-0.4,0c-0.1,0.1-0.2,0.2-0.3,0.4c-0.1,0.3-0.2,0.5-0.3,0.7
		c-0.1,0.2-0.3,0.3-0.4,0.3c-0.2,0.1-0.4,0.1-0.7,0.1h-0.3c-0.3,0-0.5-0.1-0.6-0.2c-0.1-0.2-0.2-0.4-0.2-0.7v-1.5h0.7
		c0.2,0,0.3,0,0.4,0c0.1,0,0.2,0.1,0.3,0.1c0.1,0.1,0.1,0.1,0.2,0.3c0.1,0.1,0.2,0.2,0.3,0.2c0.1,0,0.2,0,0.4,0
		c0.1,0,0.2-0.1,0.3-0.2c0.1-0.1,0.1-0.3,0-0.5l-0.3-1.6c-0.1-0.3-0.2-0.4-0.5-0.4c-0.1,0-0.2,0-0.3,0.1c-0.1,0.1-0.2,0.2-0.2,0.3
		c-0.1,0.2-0.1,0.3-0.2,0.4c-0.1,0.1-0.2,0.1-0.3,0.1h-0.6V94h1c0.2,0,0.3,0,0.4,0c0.1,0,0.2,0.1,0.3,0.1c0.1,0.1,0.2,0.2,0.3,0.3
		c0.1,0.1,0.2,0.3,0.3,0.5c0.1,0.2,0.2,0.3,0.3,0.4c0.1,0.1,0.3,0.1,0.4,0c0.1,0,0.3-0.1,0.3-0.2c0.1-0.1,0.1-0.3,0-0.4l-0.3-1.3
		c-0.1-0.3-0.2-0.5-0.3-0.6c-0.1-0.1-0.3-0.2-0.5-0.2c-0.1,0-0.3,0-0.4,0.1c-0.1,0-0.2,0.1-0.4,0.1c-0.1,0-0.3,0.1-0.5,0.1h-3.8
		c-0.2,0-0.4,0-0.5,0.1c-0.1,0.1-0.2,0.2-0.2,0.4c0,0.3,0.1,0.5,0.4,0.6l0.2,0.1c0.1,0.1,0.2,0.1,0.2,0.2c0,0.1,0.1,0.2,0.1,0.3v4.6
		c0,0.1,0,0.2-0.1,0.3c0,0.1-0.1,0.1-0.2,0.2l-0.2,0.1c-0.2,0.1-0.4,0.3-0.4,0.6c0,0.2,0.1,0.3,0.2,0.4c0.1,0.1,0.3,0.1,0.5,0.1h4
		c0.2,0,0.4,0,0.5,0.1C96,101.1,96.1,101.2,96.3,101.2z"/>
	<path class="st0" d="M108.2,99.9c0.2-0.4,0.4-0.8,0.4-1.3c0-0.4-0.1-0.8-0.2-1.1c-0.1-0.3-0.4-0.6-0.7-0.8
		c-0.3-0.2-0.7-0.5-1.3-0.7c-0.6-0.2-1-0.4-1.3-0.5c-0.3-0.1-0.5-0.3-0.5-0.4c-0.1-0.1-0.1-0.3-0.1-0.4c0-0.2,0.1-0.4,0.2-0.5
		c0.1-0.1,0.4-0.2,0.6-0.2c0.3,0,0.5,0.1,0.8,0.2c0.3,0.1,0.5,0.3,0.7,0.5c0.2,0.2,0.4,0.5,0.6,0.8c0.1,0.2,0.2,0.3,0.3,0.4
		c0.1,0.1,0.3,0.1,0.5,0c0.2-0.1,0.3-0.2,0.4-0.3c0.1-0.1,0-0.3,0-0.5l-0.5-1.5c-0.1-0.3-0.2-0.5-0.3-0.6c-0.1-0.1-0.2-0.2-0.4-0.2
		c-0.1,0-0.2,0-0.3,0.1c-0.1,0.1-0.1,0.1-0.2,0.2c-0.1,0.1-0.1,0.1-0.3,0.1c-0.1,0-0.3,0-0.4-0.1c-0.2-0.1-0.3-0.1-0.5-0.2
		c-0.2-0.1-0.5-0.1-0.8-0.1c-0.6,0-1.1,0.1-1.5,0.3c-0.4,0.2-0.7,0.5-1,0.9c-0.2,0.4-0.3,0.8-0.3,1.3c0,0.4,0.1,0.8,0.2,1.1
		c0.1,0.3,0.4,0.6,0.7,0.9c0.3,0.2,0.8,0.5,1.4,0.6c0.5,0.2,0.9,0.3,1.1,0.4c0.2,0.1,0.4,0.2,0.5,0.4c0.1,0.1,0.1,0.3,0.1,0.4
		c0,0.2-0.1,0.4-0.3,0.5c-0.2,0.1-0.4,0.2-0.7,0.2c-0.2,0-0.5,0-0.7-0.1c-0.2-0.1-0.4-0.2-0.6-0.4c-0.2-0.2-0.4-0.4-0.5-0.7
		c-0.1-0.2-0.2-0.3-0.3-0.4c-0.1-0.1-0.2-0.1-0.4,0c-0.2,0-0.3,0.1-0.3,0.2c-0.1,0.1-0.1,0.3-0.1,0.4l0.3,1.5c0,0.2,0.1,0.4,0.2,0.5
		c0.1,0.1,0.2,0.1,0.4,0.1c0.1,0,0.1,0,0.2,0c0.1,0,0.1,0,0.2-0.1c0.1,0,0.1-0.1,0.2-0.1c0.1,0,0.1,0,0.2,0c0.1,0,0.2,0,0.4,0
		c0.1,0,0.3,0.1,0.5,0.1c0.2,0,0.4,0,0.6,0c0.6,0,1.2-0.1,1.6-0.3C107.6,100.6,107.9,100.3,108.2,99.9z"/>
	<path class="st0" d="M120.2,94.1c-0.4-0.4-0.9-0.7-1.4-0.9c-0.6-0.2-1.2-0.3-1.8-0.3h-3.3c-0.2,0-0.4,0-0.5,0.1
		c-0.1,0.1-0.2,0.2-0.2,0.4c0,0.3,0.1,0.5,0.4,0.6l0.2,0.1c0.1,0.1,0.2,0.1,0.2,0.2c0,0.1,0.1,0.2,0.1,0.3v4.6c0,0.1,0,0.2-0.1,0.3
		c0,0.1-0.1,0.1-0.2,0.2l-0.2,0.1c-0.2,0.1-0.4,0.3-0.4,0.6c0,0.2,0.1,0.3,0.2,0.4c0.1,0.1,0.3,0.1,0.5,0.1h3.8
		c0.8,0,1.5-0.2,2.1-0.5c0.6-0.3,1.1-0.8,1.4-1.3c0.3-0.6,0.5-1.2,0.5-1.9c0-0.6-0.1-1.2-0.3-1.8C120.9,95,120.6,94.5,120.2,94.1z
		 M118.7,98.7c-0.1,0.4-0.3,0.7-0.6,0.9c-0.2,0.2-0.5,0.3-0.8,0.3h-0.1c-0.2,0-0.4-0.1-0.6-0.2c-0.1-0.1-0.2-0.4-0.2-0.7v-5h0.3
		c0.3,0,0.6,0.1,0.9,0.2c0.3,0.2,0.5,0.4,0.7,0.6c0.2,0.3,0.3,0.6,0.4,1c0.1,0.4,0.1,0.8,0.1,1.3C118.9,97.8,118.8,98.3,118.7,98.7z
		"/>
	<path class="st0" d="M132.7,98.4c-0.2,0-0.3,0-0.4,0c-0.1,0.1-0.2,0.2-0.3,0.4c-0.1,0.3-0.2,0.5-0.3,0.7c-0.1,0.2-0.3,0.3-0.4,0.3
		c-0.2,0.1-0.4,0.1-0.7,0.1h-0.3c-0.3,0-0.5-0.1-0.6-0.2c-0.1-0.2-0.2-0.4-0.2-0.7v-1.5h0.7c0.2,0,0.3,0,0.4,0
		c0.1,0,0.2,0.1,0.3,0.1c0.1,0.1,0.1,0.1,0.2,0.3c0.1,0.1,0.2,0.2,0.3,0.2c0.1,0,0.2,0,0.4,0c0.1,0,0.2-0.1,0.3-0.2
		c0.1-0.1,0.1-0.3,0-0.5l-0.3-1.6c-0.1-0.3-0.2-0.4-0.5-0.4c-0.1,0-0.2,0-0.3,0.1c-0.1,0.1-0.2,0.2-0.2,0.3
		c-0.1,0.2-0.1,0.3-0.2,0.4c-0.1,0.1-0.2,0.1-0.3,0.1h-0.6V94h1c0.2,0,0.3,0,0.4,0c0.1,0,0.2,0.1,0.3,0.1c0.1,0.1,0.2,0.2,0.3,0.3
		c0.1,0.1,0.2,0.3,0.3,0.5c0.1,0.2,0.2,0.3,0.3,0.4c0.1,0.1,0.3,0.1,0.4,0c0.1,0,0.3-0.1,0.3-0.2c0.1-0.1,0.1-0.3,0-0.4l-0.3-1.3
		c-0.1-0.3-0.2-0.5-0.3-0.6c-0.1-0.1-0.3-0.2-0.5-0.2c-0.1,0-0.3,0-0.4,0.1c-0.1,0-0.2,0.1-0.4,0.1c-0.1,0-0.3,0.1-0.5,0.1h-3.8
		c-0.2,0-0.4,0-0.5,0.1c-0.1,0.1-0.2,0.2-0.2,0.4c0,0.3,0.1,0.5,0.4,0.6l0.2,0.1c0.1,0.1,0.2,0.1,0.2,0.2c0,0.1,0.1,0.2,0.1,0.3v4.6
		c0,0.1,0,0.2-0.1,0.3c0,0.1-0.1,0.1-0.2,0.2l-0.2,0.1c-0.2,0.1-0.4,0.3-0.4,0.6c0,0.2,0.1,0.3,0.2,0.4c0.1,0.1,0.3,0.1,0.5,0.1h4
		c0.2,0,0.4,0,0.5,0.1c0.1,0,0.3,0.1,0.4,0.1c0.1,0,0.2,0.1,0.4,0.1c0.2,0,0.4-0.1,0.5-0.2c0.1-0.1,0.2-0.3,0.3-0.6l0.3-1.3
		c0.1-0.2,0-0.4,0-0.5C133,98.5,132.9,98.4,132.7,98.4z"/>
	<path class="st0" d="M142.6,99.6c0,0.1-0.1,0.1-0.2,0.2l-0.5,0.1c-0.3,0.1-0.5,0.3-0.5,0.6c0,0.2,0.1,0.3,0.2,0.4
		c0.1,0.1,0.3,0.2,0.5,0.2h3.7c0.2,0,0.4-0.1,0.5-0.2c0.1-0.1,0.2-0.2,0.2-0.4c0-0.3-0.2-0.5-0.5-0.6l-0.4-0.1
		c-0.1,0-0.2-0.1-0.2-0.2c0-0.1-0.1-0.2-0.1-0.3v-5.9c0-0.4-0.2-0.6-0.6-0.6c-0.1,0-0.2,0-0.3,0c-0.1,0-0.2,0.1-0.3,0.1
		c-0.2,0.1-0.5,0.3-0.7,0.3c-0.2,0.1-0.5,0.1-0.8,0.1h-0.4c-0.2,0-0.4,0.1-0.5,0.2c-0.1,0.1-0.2,0.3-0.2,0.5c0,0.2,0,0.3,0.1,0.5
		c0.1,0.1,0.3,0.2,0.5,0.2h0.2c0.2,0,0.3,0,0.3,0.1c0.1,0.1,0.1,0.3,0.1,0.5v4C142.7,99.4,142.7,99.5,142.6,99.6z"/>
	<path class="st0" d="M155.9,93.3c-0.5-0.3-1.1-0.5-1.9-0.5c-0.7,0-1.3,0.1-1.7,0.3c-0.5,0.2-0.8,0.6-1.1,1
		c-0.3,0.4-0.4,0.9-0.4,1.4c0,0.5,0.1,1,0.3,1.3c0.2,0.4,0.5,0.6,0.8,0.8c0.3,0.2,0.8,0.3,1.2,0.3c0.5,0,0.9-0.1,1.2-0.2
		c0.2-0.1,0.4-0.2,0.5-0.3c0,0.5-0.1,1-0.1,1.3c-0.1,0.5-0.2,0.8-0.3,1c-0.1,0.2-0.3,0.3-0.5,0.3c-0.1,0-0.3,0-0.3-0.1
		c-0.1-0.1-0.1-0.2-0.1-0.4v-0.2c0-0.3-0.1-0.6-0.3-0.8s-0.5-0.3-1-0.3c-0.4,0-0.7,0.1-1,0.3c-0.2,0.2-0.4,0.5-0.4,0.9
		c0,0.3,0.1,0.6,0.3,0.9s0.5,0.5,0.9,0.6c0.4,0.2,0.9,0.2,1.5,0.2c0.8,0,1.5-0.2,2.1-0.5c0.6-0.4,1-0.9,1.3-1.5
		c0.3-0.7,0.5-1.5,0.5-2.4c0-0.8-0.1-1.5-0.4-2.1C156.8,94.1,156.4,93.6,155.9,93.3z M154.1,96.5c-0.3,0-0.5-0.1-0.6-0.3
		c-0.2-0.2-0.2-0.5-0.2-1c0-0.4,0.1-0.7,0.2-0.9c0.1-0.2,0.3-0.3,0.6-0.3c0.2,0,0.4,0.1,0.5,0.2c0.1,0.1,0.2,0.4,0.3,0.8
		c0.1,0.3,0.1,0.7,0.1,1.2c-0.1,0.1-0.2,0.2-0.3,0.2C154.4,96.4,154.2,96.5,154.1,96.5z"/>
	<path class="st0" d="M167.1,96.9c0.2,0,0.3-0.1,0.5-0.2c0.4-0.2,0.7-0.5,0.9-0.8c0.2-0.3,0.3-0.6,0.3-0.9c0-0.4-0.1-0.8-0.4-1.1
		c-0.2-0.3-0.6-0.6-1-0.8c-0.4-0.2-1-0.3-1.6-0.3c-0.8,0-1.5,0.1-2,0.4c-0.5,0.3-0.9,0.6-1.2,1c-0.3,0.4-0.4,0.8-0.4,1.3
		c0,0.5,0.2,1,0.6,1.4c0.3,0.3,0.6,0.5,1.1,0.7c-0.2,0-0.3,0.1-0.4,0.1c-0.4,0.2-0.7,0.4-0.9,0.7c-0.2,0.3-0.3,0.6-0.3,1
		c0,0.3,0.1,0.6,0.3,0.9c0.2,0.3,0.5,0.5,1,0.7c0.4,0.2,1,0.3,1.7,0.3c0.8,0,1.5-0.1,2-0.3c0.5-0.2,0.9-0.5,1.2-0.8
		c0.3-0.3,0.4-0.7,0.4-1.2c0-0.5-0.2-1-0.6-1.3C167.9,97.3,167.5,97.1,167.1,96.9z M164.6,94.4c0.1-0.1,0.2-0.2,0.3-0.3
		c0.1-0.1,0.3-0.1,0.5-0.1c0.2,0,0.4,0,0.5,0.1c0.1,0.1,0.2,0.2,0.3,0.4c0.1,0.2,0.1,0.3,0.1,0.6c0,0.3,0,0.5-0.1,0.7
		c-0.1,0.2-0.1,0.4-0.2,0.6c0,0-0.1,0.1-0.1,0.1c-0.2-0.1-0.4-0.2-0.6-0.3c-0.3-0.2-0.5-0.4-0.6-0.6c-0.1-0.2-0.2-0.5-0.2-0.7
		C164.5,94.6,164.5,94.5,164.6,94.4z M165.9,99.8c-0.1,0.1-0.3,0.2-0.6,0.2c-0.3,0-0.5-0.1-0.7-0.3c-0.1-0.2-0.2-0.5-0.2-0.8
		c0-0.2,0-0.4,0.1-0.6c0-0.1,0.1-0.2,0.2-0.3c0.3,0.1,0.5,0.2,0.7,0.3c0.2,0.1,0.4,0.3,0.5,0.5c0.1,0.2,0.1,0.4,0.1,0.6
		C166.1,99.5,166.1,99.7,165.9,99.8z"/>
	<path class="st0" d="M178.8,93.3c-0.5-0.3-1.2-0.5-1.9-0.5c-0.7,0-1.4,0.2-1.9,0.5c-0.5,0.3-1,0.8-1.3,1.5
		c-0.3,0.6-0.5,1.4-0.5,2.2c0,0.9,0.1,1.7,0.4,2.3c0.3,0.6,0.7,1.1,1.2,1.4c0.5,0.3,1.2,0.5,1.9,0.5c0.7,0,1.4-0.2,1.9-0.5
		c0.5-0.3,1-0.8,1.3-1.5c0.3-0.6,0.5-1.4,0.5-2.2c0-0.9-0.1-1.7-0.4-2.3C179.8,94.1,179.4,93.6,178.8,93.3z M177.8,98.8
		c-0.1,0.4-0.2,0.7-0.3,0.9c-0.2,0.2-0.3,0.3-0.6,0.3c-0.2,0-0.4-0.1-0.6-0.3c-0.2-0.2-0.3-0.5-0.4-1c-0.1-0.5-0.1-1.1-0.1-1.9
		c0-0.7,0-1.2,0.1-1.6c0.1-0.4,0.2-0.7,0.3-0.9c0.2-0.2,0.3-0.3,0.6-0.3c0.2,0,0.4,0.1,0.6,0.3c0.2,0.2,0.3,0.5,0.4,1
		c0.1,0.5,0.1,1.1,0.1,1.9C177.9,97.8,177.9,98.4,177.8,98.8z"/>
	<path class="st0" d="M185.4,98.8c1.1,0,2-0.9,2-2c0-1.1-0.9-2-2-2c-1.1,0-2,0.9-2,2C183.4,97.9,184.3,98.8,185.4,98.8z"/>
	<path class="st0" d="M70.9,96.8c0,1.1,0.9,2,2,2c1.1,0,2-0.9,2-2c0-1.1-0.9-2-2-2C71.7,94.9,70.9,95.8,70.9,96.8z"/>
</g>
</svg>
